<?xml version="1.0" encoding="UTF-8" standalone="no"?><!DOCTYPE svg PUBLIC "-//W3C//DTD SVG 1.1//EN" "http://www.w3.org/Graphics/SVG/1.1/DTD/svg11.dtd"><svg width="100%" height="100%" viewBox="0 0 4725 2520" version="1.1" xmlns="http://www.w3.org/2000/svg" xmlns:xlink="http://www.w3.org/1999/xlink" xml:space="preserve" xmlns:serif="http://www.serif.com/" style="fill-rule:evenodd;clip-rule:evenodd;stroke-linecap:round;stroke-linejoin:round;stroke-miterlimit:1.5;"><path d="M1606.44,-685.79l-1796.62,-8.911l1351.8,1032.62l444.819,-1023.71Z" style="fill:#ff7900;stroke:#000;stroke-width:16.67px;"/><path d="M-717.522,1762.93l527.347,-2457.63l408.969,1282.19l-936.316,1175.44Z" style="fill:#ff5700;stroke:#000;stroke-width:16.67px;"/><rect id="Монтажная-область1" serif:id="Монтажная область1" x="0" y="0" width="4724.41" height="2519.68" style="fill:none;"/><clipPath id="_clip1"><rect x="0" y="0" width="4724.41" height="2519.68"/></clipPath><g clip-path="url(#_clip1)"><path d="M2810.52,2837.59l1571.38,548.442l-286.905,-1167.03l-1284.47,618.591Z" style="fill:#004fff;stroke:#000;stroke-width:16.67px;"/><path d="M2810.52,2838.53l-867.054,-1169.56l1422.72,-0l-555.668,1169.56Z" style="fill:#00ff6a;stroke:#000;stroke-width:16.67px;"/><path d="M1537.52,2288.28l405.947,-619.308l-1126.93,-150.976l720.986,770.284Z" style="fill:#ffea00;stroke:#000;stroke-width:16.67px;"/><path d="M2217.69,519.705l1438.13,301.951l-289.627,847.313l-1148.5,-1149.26Z" style="fill:#0f4;stroke:#000;stroke-width:16.67px;"/><path d="M3655.82,821.656l-289.627,847.313l1114.31,-475.768l-824.681,-371.545Z" style="fill:#00ffd6;stroke:#000;stroke-width:16.67px;"/><path d="M4572.93,182.588l-92.434,1010.61l-824.681,-371.545l917.115,-639.068Z" style="fill:#21ff00;stroke:#000;stroke-width:16.67px;"/><path d="M1161.62,337.918l1056.07,181.787l-274.221,1149.26l-781.846,-1331.05Z" style="fill:#ffd400;stroke:#000;stroke-width:16.67px;"/><path d="M816.535,1517.99l345.087,-1180.08l781.846,1331.05l-1126.93,-150.976Z" style="fill:#ffb700;stroke:#000;stroke-width:16.67px;"/><path d="M218.794,587.49l942.828,-249.572l-345.087,1180.08l-597.741,-930.503Z" style="fill:#ff6000;stroke:#000;stroke-width:16.67px;"/><path d="M1943.47,1668.97l1422.72,-0l-1148.5,-1149.26l-274.221,1149.26Z" style="fill:#8fff00;stroke:#000;stroke-width:16.67px;"/><path d="M4095,2219.94l-728.806,-550.967l-555.668,1169.56l1284.47,-618.591Z" style="fill:#00fff0;stroke:#000;stroke-width:16.67px;"/><path d="M4480.5,1193.2l-1114.31,475.768l728.806,550.967l385.502,-1026.74Z" style="fill:#00d8ff;stroke:#000;stroke-width:16.67px;"/><path d="M5454.14,2062.08l-973.638,-868.88l-385.502,1026.74l1359.14,-157.855Z" style="fill:#0096ff;stroke:#000;stroke-width:16.67px;"/><path d="M4381.9,3386.97l-286.905,-1167.03l1359.14,-157.855l-1072.24,1324.89Z" style="fill:#000aff;stroke:#000;stroke-width:16.67px;"/><path d="M3264.91,-412.137l390.902,1233.79l-1438.13,-301.951l1047.23,-931.842Z" style="fill:#fff200;stroke:#000;stroke-width:16.67px;"/><path d="M1606.44,-685.79l611.248,1205.5l-1056.07,-181.787l444.819,-1023.71Z" style="fill:#ff8900;stroke:#000;stroke-width:16.67px;"/><path d="M218.794,2833.63l597.741,-1315.63l720.986,770.284l-1318.73,545.35Z" style="fill:#fffe00;stroke:#000;stroke-width:16.67px;"/><path d="M-717.522,1762.93l936.316,1070.69l597.741,-1315.63l-1534.06,244.94Z" style="fill:#ffd600;stroke:#000;stroke-width:16.67px;"/><path d="M-717.522,1762.93l936.316,-1175.44l597.741,930.503l-1534.06,244.94Z" style="fill:#ff8100;stroke:#000;stroke-width:16.67px;"/><path d="M-190.175,-694.701l408.969,1282.19l942.828,-249.572l-1351.8,-1032.62Z" style="fill:#ff0a00;stroke:#000;stroke-width:16.67px;"/><path d="M218.794,2833.63l1318.73,-545.35l-0,1300.23l-1318.73,-754.878Z" style="fill:#a4ff00;stroke:#000;stroke-width:16.67px;"/><path d="M2810.52,2838.53l-1273,-550.25l-0,1300.23l1273,-749.978Z" style="fill:#00ff86;stroke:#000;stroke-width:16.67px;"/><path d="M1943.47,1668.97l867.054,1169.56l-1273,-550.25l405.947,-619.308Z" style="fill:#91ff00;stroke:#000;stroke-width:16.67px;"/><path d="M1606.44,-685.79l1658.47,273.653l-1047.23,931.842l-611.248,-1205.5Z" style="fill:#ffc700;stroke:#000;stroke-width:16.67px;"/><path d="M4572.93,182.588l-1308.02,-594.725l390.902,1233.79l917.115,-639.068Z" style="fill:#c0ff00;stroke:#000;stroke-width:16.67px;"/><path d="M4572.93,-685.79l-0,868.378l-1308.02,-594.725l1308.02,-273.653Z" style="fill:#53ff00;stroke:#000;stroke-width:16.67px;"/><path d="M5482.39,-83.043l-909.456,-602.747l-0,868.378l909.456,-265.631Z" style="fill:#00ff6b;stroke:#000;stroke-width:16.67px;"/><path d="M5482.39,821.656l-909.456,-639.068l909.456,-265.631l-0,904.699Z" style="fill:#00ffa5;stroke:#000;stroke-width:16.67px;"/><path d="M4480.5,1193.2l1001.89,-371.545l-909.456,-639.068l-92.434,1010.61Z" style="fill:#00ffe1;stroke:#000;stroke-width:16.67px;"/><path d="M5482.34,821.656l-28.251,1240.42l-973.639,-868.88l1001.89,-371.545Z" style="fill:#00ceff;stroke:#000;stroke-width:16.67px;"/><circle cx="218.794" cy="587.49" r="150.976" style="fill:#ebebeb;stroke:#000;stroke-width:16.67px;"/><circle cx="816.535" cy="1517.99" r="150.976" style="fill:#ebebeb;stroke:#000;stroke-width:16.67px;"/><circle cx="1537.52" cy="2288.28" r="150.976" style="fill:#ebebeb;stroke:#000;stroke-width:16.67px;"/><circle cx="1943.47" cy="1668.97" r="150.976" style="fill:#ebebeb;stroke:#000;stroke-width:16.67px;"/><circle cx="1161.62" cy="337.918" r="150.976" style="fill:#ebebeb;stroke:#000;stroke-width:16.67px;"/><circle cx="2217.69" cy="519.705" r="150.976" style="fill:#ebebeb;stroke:#000;stroke-width:16.67px;"/><circle cx="3655.82" cy="821.656" r="150.976" style="fill:#ebebeb;stroke:#000;stroke-width:16.67px;"/><circle cx="3366.19" cy="1668.97" r="150.976" style="fill:#ebebeb;stroke:#000;stroke-width:16.67px;"/><circle cx="4095" cy="2219.94" r="150.976" style="fill:#ebebeb;stroke:#000;stroke-width:16.67px;"/><circle cx="4480.5" cy="1189.61" r="150.976" style="fill:#ebebeb;stroke:#000;stroke-width:16.67px;"/><circle cx="4572.93" cy="182.588" r="150.976" style="fill:#ebebeb;stroke:#000;stroke-width:16.67px;"/><text x="689.289px" y="1593.86px" style="font-family:'DejaVuSerif-Italic', 'DejaVu Serif', serif;font-style:italic;font-size:200px;">32</text><text x="976.512px" y="1448.92px" style="font-family:'DejaVuSerif-Italic', 'DejaVu Serif', serif;font-style:italic;font-size:133.333px;">1</text><text x="989.133px" y="1688.36px" style="font-family:'DejaVuSerif-Italic', 'DejaVu Serif', serif;font-style:italic;font-size:133.333px;">1</text><text x="2085.55px" y="1571.09px" style="font-family:'DejaVuSerif-Italic', 'DejaVu Serif', serif;font-style:italic;font-size:133.333px;">1</text><text x="3479.13px" y="1534.88px" style="font-family:'DejaVuSerif-Italic', 'DejaVu Serif', serif;font-style:italic;font-size:133.333px;">1</text><text x="3831.29px" y="846.723px" style="font-family:'DejaVuSerif-Italic', 'DejaVu Serif', serif;font-style:italic;font-size:133.333px;">1</text><text x="2390.79px" y="510.909px" style="font-family:'DejaVuSerif-Italic', 'DejaVu Serif', serif;font-style:italic;font-size:133.333px;">1</text><text x="2427.36px" y="700.907px" style="font-family:'DejaVuSerif-Italic', 'DejaVu Serif', serif;font-style:italic;font-size:133.333px;">1</text><text x="3552.47px" y="1744.94px" style="font-family:'DejaVuSerif-Italic', 'DejaVu Serif', serif;font-style:italic;font-size:133.333px;">1</text><text x="4250.99px" y="2118.68px" style="font-family:'DejaVuSerif-Italic', 'DejaVu Serif', serif;font-style:italic;font-size:133.333px;">1</text><text x="4228.32px" y="2420.63px" style="font-family:'DejaVuSerif-Italic', 'DejaVu Serif', serif;font-style:italic;font-size:133.333px;">1</text><text x="2110.37px" y="1829.99px" style="font-family:'DejaVuSerif-Italic', 'DejaVu Serif', serif;font-style:italic;font-size:133.333px;">1</text><text x="1709.67px" y="2304.4px" style="font-family:'DejaVuSerif-Italic', 'DejaVu Serif', serif;font-style:italic;font-size:133.333px;">1</text><text x="1642.18px" y="2502.9px" style="font-family:'DejaVuSerif-Italic', 'DejaVu Serif', serif;font-style:italic;font-size:133.333px;">1</text><text x="1321.6px" y="533.066px" style="font-family:'DejaVuSerif-Italic', 'DejaVu Serif', serif;font-style:italic;font-size:133.333px;">1</text><text x="1331.29px" y="310.819px" style="font-family:'DejaVuSerif-Italic', 'DejaVu Serif', serif;font-style:italic;font-size:133.333px;">1</text><text x="384.936px" y="743.216px" style="font-family:'DejaVuSerif-Italic', 'DejaVu Serif', serif;font-style:italic;font-size:133.333px;">1</text><text x="278.128px" y="441.106px" style="font-family:'DejaVuSerif-Italic', 'DejaVu Serif', serif;font-style:italic;font-size:133.333px;">1</text><text x="1691.33px" y="1587.42px" style="font-family:'DejaVuSerif-Italic', 'DejaVu Serif', serif;font-style:italic;font-size:133.333px;">2</text><text x="1492.56px" y="2114.32px" style="font-family:'DejaVuSerif-Italic', 'DejaVu Serif', serif;font-style:italic;font-size:133.333px;">2</text><text x="1259.87px" y="2304.4px" style="font-family:'DejaVuSerif-Italic', 'DejaVu Serif', serif;font-style:italic;font-size:133.333px;">2</text><text x="3103.84px" y="1635.83px" style="font-family:'DejaVuSerif-Italic', 'DejaVu Serif', serif;font-style:italic;font-size:133.333px;">2</text><text x="3280.66px" y="1484.23px" style="font-family:'DejaVuSerif-Italic', 'DejaVu Serif', serif;font-style:italic;font-size:133.333px;">2</text><text x="4201.44px" y="1251.61px" style="font-family:'DejaVuSerif-Italic', 'DejaVu Serif', serif;font-style:italic;font-size:133.333px;">2</text><text x="4492.14px" y="1457.75px" style="font-family:'DejaVuSerif-Italic', 'DejaVu Serif', serif;font-style:italic;font-size:133.333px;">2</text><text x="4026.98px" y="2046.39px" style="font-family:'DejaVuSerif-Italic', 'DejaVu Serif', serif;font-style:italic;font-size:133.333px;">2</text><text x="3835.45px" y="2251.87px" style="font-family:'DejaVuSerif-Italic', 'DejaVu Serif', serif;font-style:italic;font-size:133.333px;">2</text><text x="4356.52px" y="1036.06px" style="font-family:'DejaVuSerif-Italic', 'DejaVu Serif', serif;font-style:italic;font-size:133.333px;">2</text><text x="3701.12px" y="645.132px" style="font-family:'DejaVuSerif-Italic', 'DejaVu Serif', serif;font-style:italic;font-size:133.333px;">2</text><text x="3434.38px" y="697.67px" style="font-family:'DejaVuSerif-Italic', 'DejaVu Serif', serif;font-style:italic;font-size:133.333px;">2</text><text x="1974.06px" y="415.894px" style="font-family:'DejaVuSerif-Italic', 'DejaVu Serif', serif;font-style:italic;font-size:133.333px;">2</text><text x="2204.32px" y="336.494px" style="font-family:'DejaVuSerif-Italic', 'DejaVu Serif', serif;font-style:italic;font-size:133.333px;">2</text><text x="1045.36px" y="163.37px" style="font-family:'DejaVuSerif-Italic', 'DejaVu Serif', serif;font-style:italic;font-size:133.333px;">2</text><text x="1868.8px" y="1440.89px" style="font-family:'DejaVuSerif-Italic', 'DejaVu Serif', serif;font-style:italic;font-size:133.333px;">2</text><text x="551.555px" y="1501.45px" style="font-family:'DejaVuSerif-Italic', 'DejaVu Serif', serif;font-style:italic;font-size:133.333px;">2</text><text x="748.748px" y="1335.81px" style="font-family:'DejaVuSerif-Italic', 'DejaVu Serif', serif;font-style:italic;font-size:133.333px;">2</text><text x="886.699px" y="344.336px" style="font-family:'DejaVuSerif-Italic', 'DejaVu Serif', serif;font-style:italic;font-size:133.333px;">2</text><text x="1153.08px" y="638.141px" style="font-family:'DejaVuSerif-Italic', 'DejaVu Serif', serif;font-style:italic;font-size:133.333px;">3</text><text x="2228.69px" y="798.36px" style="font-family:'DejaVuSerif-Italic', 'DejaVu Serif', serif;font-style:italic;font-size:133.333px;">3</text><text x="3103.84px" y="1829.99px" style="font-family:'DejaVuSerif-Italic', 'DejaVu Serif', serif;font-style:italic;font-size:133.333px;">3</text><text x="3410.34px" y="983.521px" style="font-family:'DejaVuSerif-Italic', 'DejaVu Serif', serif;font-style:italic;font-size:133.333px;">3</text><text x="3701.12px" y="1088.6px" style="font-family:'DejaVuSerif-Italic', 'DejaVu Serif', serif;font-style:italic;font-size:133.333px;">3</text><text x="4275.81px" y="1405.21px" style="font-family:'DejaVuSerif-Italic', 'DejaVu Serif', serif;font-style:italic;font-size:133.333px;">3</text><text x="4296.42px" y="258.282px" style="font-family:'DejaVuSerif-Italic', 'DejaVu Serif', serif;font-style:italic;font-size:133.333px;">3</text><text x="4404.01px" y="445.668px" style="font-family:'DejaVuSerif-Italic', 'DejaVu Serif', serif;font-style:italic;font-size:133.333px;">3</text><text x="3362.85px" y="1955.01px" style="font-family:'DejaVuSerif-Italic', 'DejaVu Serif', serif;font-style:italic;font-size:133.333px;">3</text><text x="3930.43px" y="2473.17px" style="font-family:'DejaVuSerif-Italic', 'DejaVu Serif', serif;font-style:italic;font-size:133.333px;">3</text><text x="1914.37px" y="1981.43px" style="font-family:'DejaVuSerif-Italic', 'DejaVu Serif', serif;font-style:italic;font-size:133.333px;">3</text><text x="1321.52px" y="2502.9px" style="font-family:'DejaVuSerif-Italic', 'DejaVu Serif', serif;font-style:italic;font-size:133.333px;">3</text><text x="1709.67px" y="1793.44px" style="font-family:'DejaVuSerif-Italic', 'DejaVu Serif', serif;font-style:italic;font-size:133.333px;">3</text><text x="806.533px" y="1793.44px" style="font-family:'DejaVuSerif-Italic', 'DejaVu Serif', serif;font-style:italic;font-size:133.333px;">3</text><text x="581.892px" y="1710.14px" style="font-family:'DejaVuSerif-Italic', 'DejaVu Serif', serif;font-style:italic;font-size:133.333px;">3</text><text x="1963.78px" y="638.141px" style="font-family:'DejaVuSerif-Italic', 'DejaVu Serif', serif;font-style:italic;font-size:133.333px;">3</text><text x="936.164px" y="585.604px" style="font-family:'DejaVuSerif-Italic', 'DejaVu Serif', serif;font-style:italic;font-size:133.333px;">3</text><text x="178.946px" y="886.603px" style="font-family:'DejaVuSerif-Italic', 'DejaVu Serif', serif;font-style:italic;font-size:133.333px;">3</text><text x="96.134px" y="659.959px" style="font-family:'DejaVuSerif-Italic', 'DejaVu Serif', serif;font-style:italic;font-size:200px;">23</text><text x="1042.66px" y="409.541px" style="font-family:'DejaVuSerif-Italic', 'DejaVu Serif', serif;font-style:italic;font-size:200px;">24</text><text x="2090.14px" y="596.895px" style="font-family:'DejaVuSerif-Italic', 'DejaVu Serif', serif;font-style:italic;font-size:200px;">25</text><text x="1815.65px" y="1744.94px" style="font-family:'DejaVuSerif-Italic', 'DejaVu Serif', serif;font-style:italic;font-size:200px;">33</text><text x="1425.21px" y="2364.13px" style="font-family:'DejaVuSerif-Italic', 'DejaVu Serif', serif;font-style:italic;font-size:200px;">49</text><text x="3243.32px" y="1744.94px" style="font-family:'DejaVuSerif-Italic', 'DejaVu Serif', serif;font-style:italic;font-size:200px;">34</text><text x="3528.57px" y="897.633px" style="font-family:'DejaVuSerif-Italic', 'DejaVu Serif', serif;font-style:italic;font-size:200px;">26</text><text x="4445.69px" y="258.565px" style="font-family:'DejaVuSerif-Italic', 'DejaVu Serif', serif;font-style:italic;font-size:200px;">11</text><text x="4356.78px" y="1256.52px" style="font-family:'DejaVuSerif-Italic', 'DejaVu Serif', serif;font-style:italic;font-size:200px;">27</text><text x="3967.7px" y="2294.98px" style="font-family:'DejaVuSerif-Italic', 'DejaVu Serif', serif;font-style:italic;font-size:200px;">35</text><g><path d="M903.753,789.057c0,-28.732 -23.326,-52.058 -52.058,-52.058l-261.871,-0c-28.732,-0 -52.059,23.326 -52.059,52.058l0,104.118c0,28.732 23.327,52.058 52.059,52.058l261.871,0c28.732,0 52.058,-23.326 52.058,-52.058l0,-104.118Z" style="fill:#fff;fill-opacity:0.4;"/><text x="622.322px" y="903.225px" style="font-family:'Cambria', serif;font-size:177.778px;">28</text></g><g><path d="M1958.7,847.267c-0,-28.732 -23.327,-52.058 -52.059,-52.058l-261.871,-0c-28.732,-0 -52.058,23.326 -52.058,52.058l-0,104.118c-0,28.732 23.326,52.058 52.058,52.058l261.871,0c28.732,0 52.059,-23.326 52.059,-52.058l-0,-104.118Z" style="fill:#fff;fill-opacity:0.4;"/><text x="1677.27px" y="961.435px" style="font-family:'Cambria', serif;font-size:177.778px;">30</text></g><g><path d="M3302.74,938.161c-0,-28.732 -23.327,-52.059 -52.059,-52.059l-261.871,0c-28.732,0 -52.058,23.327 -52.058,52.059l-0,104.117c-0,28.732 23.326,52.059 52.058,52.059l261.871,-0c28.732,-0 52.059,-23.327 52.059,-52.059l-0,-104.117Z" style="fill:#fff;fill-opacity:0.4;"/><text x="3021.31px" y="1052.33px" style="font-family:'Cambria', serif;font-size:177.778px;">32</text></g><g><path d="M2629.44,1207.78c0,-28.732 -23.326,-52.059 -52.058,-52.059l-261.871,0c-28.732,0 -52.059,23.327 -52.059,52.059l0,104.117c0,28.732 23.327,52.059 52.059,52.059l261.871,-0c28.732,-0 52.058,-23.327 52.058,-52.059l0,-104.117Z" style="fill:#fff;fill-opacity:0.4;"/><text x="2348.01px" y="1321.95px" style="font-family:'Cambria', serif;font-size:177.778px;">31</text></g><g><path d="M1437.74,1063.62c-0,-28.732 -23.327,-52.059 -52.059,-52.059l-261.871,0c-28.732,0 -52.059,23.327 -52.059,52.059l0,104.117c0,28.732 23.327,52.059 52.059,52.059l261.871,-0c28.732,-0 52.059,-23.327 52.059,-52.059l-0,-104.117Z" style="fill:#fff;fill-opacity:0.4;"/><text x="1156.31px" y="1177.79px" style="font-family:'Cambria', serif;font-size:177.778px;">29</text></g><g><path d="M425.986,1145.58c-0,-28.732 -23.327,-52.058 -52.059,-52.058l-261.871,-0c-28.732,-0 -52.058,23.326 -52.058,52.058l-0,104.118c-0,28.731 23.326,52.058 52.058,52.058l261.871,0c28.732,0 52.059,-23.327 52.059,-52.058l-0,-104.118Z" style="fill:#fff;fill-opacity:0.4;"/><text x="144.554px" y="1259.75px" style="font-family:'Cambria', serif;font-size:177.778px;">27</text></g><g><path d="M708.133,137.509c0,-28.732 -23.327,-52.059 -52.059,-52.059l-261.87,0c-28.732,0 -52.059,23.327 -52.059,52.059l0,104.117c0,28.732 23.327,52.059 52.059,52.059l261.87,-0c28.732,-0 52.059,-23.327 52.059,-52.059l0,-104.117Z" style="fill:#fff;fill-opacity:0.4;"/><text x="426.702px" y="251.677px" style="font-family:'Cambria', serif;font-size:177.778px;">13</text></g><g><path d="M1872.65,165.706c0,-28.732 -23.326,-52.059 -52.058,-52.059l-261.871,0c-28.732,0 -52.059,23.327 -52.059,52.059l0,104.117c0,28.732 23.327,52.059 52.059,52.059l261.871,-0c28.732,-0 52.058,-23.327 52.058,-52.059l0,-104.117Z" style="fill:#fff;fill-opacity:0.4;"/><text x="1591.22px" y="279.874px" style="font-family:'Cambria', serif;font-size:177.778px;">15</text></g><g><path d="M3163.61,269.823c-0,-28.732 -23.327,-52.059 -52.059,-52.059l-261.871,0c-28.732,0 -52.058,23.327 -52.058,52.059l-0,104.117c-0,28.732 23.326,52.059 52.058,52.059l261.871,0c28.732,0 52.059,-23.327 52.059,-52.059l-0,-104.117Z" style="fill:#fff;fill-opacity:0.4;"/><text x="2882.18px" y="383.991px" style="font-family:'Cambria', serif;font-size:177.778px;">17</text></g><g><path d="M4101.92,269.823c0,-28.732 -23.326,-52.059 -52.058,-52.059l-261.871,0c-28.732,0 -52.059,23.327 -52.059,52.059l0,104.117c0,28.732 23.327,52.059 52.059,52.059l261.871,0c28.732,0 52.058,-23.327 52.058,-52.059l0,-104.117Z" style="fill:#fff;fill-opacity:0.4;"/><text x="3820.49px" y="383.991px" style="font-family:'Cambria', serif;font-size:177.778px;">18</text></g><g><path d="M4415.85,665.48c-0,-28.732 -23.327,-52.058 -52.059,-52.058l-261.871,-0c-28.732,-0 -52.058,23.326 -52.058,52.058l-0,104.118c-0,28.731 23.326,52.058 52.058,52.058l261.871,0c28.732,0 52.059,-23.327 52.059,-52.058l-0,-104.118Z" style="fill:#fff;fill-opacity:0.4;"/><text x="4134.41px" y="779.648px" style="font-family:'Cambria', serif;font-size:177.778px;">19</text></g><g><path d="M1081.45,2102.92c-0,-28.732 -23.327,-52.058 -52.059,-52.058l-261.871,-0c-28.732,-0 -52.058,23.326 -52.058,52.058l-0,104.118c-0,28.732 23.326,52.058 52.058,52.058l261.871,0c28.732,0 52.059,-23.326 52.059,-52.058l-0,-104.118Z" style="fill:#fff;fill-opacity:0.4;"/><text x="800.017px" y="2217.09px" style="font-family:'Cambria', serif;font-size:177.778px;">46</text></g><g><path d="M1592.64,1746.96c-0,-28.732 -23.327,-52.059 -52.059,-52.059l-261.871,0c-28.732,0 -52.058,23.327 -52.058,52.059l-0,104.117c-0,28.732 23.326,52.059 52.058,52.059l261.871,-0c28.732,-0 52.059,-23.327 52.059,-52.059l-0,-104.117Z" style="fill:#fff;fill-opacity:0.4;"/><text x="1311.21px" y="1861.13px" style="font-family:'Cambria', serif;font-size:177.778px;">47</text></g><g><path d="M2223.49,2201.69c0,-28.732 -23.326,-52.058 -52.058,-52.058l-261.871,-0c-28.732,-0 -52.059,23.326 -52.059,52.058l0,104.117c0,28.732 23.327,52.059 52.059,52.059l261.871,0c28.732,0 52.058,-23.327 52.058,-52.059l0,-104.117Z" style="fill:#fff;fill-opacity:0.4;"/><text x="1942.06px" y="2315.86px" style="font-family:'Cambria', serif;font-size:177.778px;">48</text></g><g><path d="M2890.98,1993.46c0,-28.732 -23.327,-52.059 -52.059,-52.059l-261.87,-0c-28.732,-0 -52.059,23.327 -52.059,52.059l-0,104.117c-0,28.732 23.327,52.059 52.059,52.059l261.87,-0c28.732,-0 52.059,-23.327 52.059,-52.059l0,-104.117Z" style="fill:#fff;fill-opacity:0.4;"/><text x="2609.55px" y="2107.62px" style="font-family:'Cambria', serif;font-size:177.778px;">49</text></g><g><path d="M3635.75,2168.47c0,-28.732 -23.327,-52.058 -52.059,-52.058l-261.87,-0c-28.732,-0 -52.059,23.326 -52.059,52.058l-0,104.118c-0,28.732 23.327,52.058 52.059,52.058l261.87,0c28.732,0 52.059,-23.326 52.059,-52.058l0,-104.118Z" style="fill:#fff;fill-opacity:0.4;"/><text x="3354.32px" y="2282.63px" style="font-family:'Cambria', serif;font-size:177.778px;">50</text></g><g><path d="M3965.42,1207.78c0,-28.732 -23.326,-52.059 -52.058,-52.059l-261.871,0c-28.732,0 -52.059,23.327 -52.059,52.059l0,104.117c0,28.732 23.327,52.059 52.059,52.059l261.871,-0c28.732,-0 52.058,-23.327 52.058,-52.059l0,-104.117Z" style="fill:#fff;fill-opacity:0.4;"/><text x="3683.99px" y="1321.95px" style="font-family:'Cambria', serif;font-size:177.778px;">33</text></g><g><path d="M4148.42,1659.56c0,-28.732 -23.326,-52.059 -52.058,-52.059l-261.871,0c-28.732,0 -52.059,23.327 -52.059,52.059l0,104.117c0,28.732 23.327,52.059 52.059,52.059l261.871,-0c28.732,-0 52.058,-23.327 52.058,-52.059l0,-104.117Z" style="fill:#fff;fill-opacity:0.4;"/><text x="3866.99px" y="1773.72px" style="font-family:'Cambria', serif;font-size:177.778px;">34</text></g><g><path d="M4676.25,1763.67c-0,-28.732 -23.327,-52.059 -52.059,-52.059l-261.871,0c-28.732,0 -52.058,23.327 -52.058,52.059l-0,104.117c-0,28.732 23.326,52.059 52.058,52.059l261.871,-0c28.732,-0 52.059,-23.327 52.059,-52.059l-0,-104.117Z" style="fill:#fff;fill-opacity:0.4;"/><text x="4394.82px" y="1877.84px" style="font-family:'Cambria', serif;font-size:177.778px;">35</text></g><g><path d="M4702.3,2310.68c-0,-28.732 -23.327,-52.058 -52.059,-52.058l-261.871,-0c-28.732,-0 -52.058,23.326 -52.058,52.058l-0,104.117c-0,28.732 23.326,52.059 52.058,52.059l261.871,0c28.732,0 52.059,-23.327 52.059,-52.059l-0,-104.117Z" style="fill:#fff;fill-opacity:0.4;"/><text x="4420.86px" y="2424.85px" style="font-family:'Cambria', serif;font-size:177.778px;">52</text></g><g><path d="M436.012,1940.66c-0,-28.732 -23.327,-52.059 -52.059,-52.059l-261.871,0c-28.732,0 -52.059,23.327 -52.059,52.059l0,104.117c0,28.732 23.327,52.059 52.059,52.059l261.871,-0c28.732,-0 52.059,-23.327 52.059,-52.059l-0,-104.117Z" style="fill:#fff;fill-opacity:0.4;"/><text x="154.58px" y="2054.83px" style="font-family:'Cambria', serif;font-size:177.778px;">45</text></g></g></svg>